<svg xmlns="http://www.w3.org/2000/svg" viewBox="0 0 272 40">
    <g fill="#F54900" fill-rule="nonzero">
        <path d="M6.048 38.288c-.544 0-.92-.16-1.128-.48-.208-.32-.312-.912-.312-1.776 0-.736-.032-1.304-.096-1.704-.064-.4-.176-.76-.336-1.08V20.384h-.672c-.928 0-1.584-.032-1.968-.096-.384-.064-.656-.176-.816-.336-.256-.096-.384-.304-.384-.624v-5.856a3.238 3.238 0 0 1-.072-.384C.248 12.96.24 12.592.24 11.984c0-.256.16-.464.48-.624.256-.256.56-.384.912-.384h2.544v-.912c0-1.6.408-3.064 1.224-4.392.816-1.328 1.944-2.36 3.384-3.096 1.344-.704 2.552-1.24 3.624-1.608C13.48.6 14.56.368 15.648.272 16.736.176 17.92.208 19.2.368c.448.064.848.104 1.2.12s.624.024.816.024c.032 0 .08.032.144.096l.24.096c.064.032.12.056.168.072a.532.532 0 0 0 .168.024l.144.48c0 .288.008.472.024.552.016.08.04.168.072.264 0 1.28.016 2.152.048 2.616.032.464.048.824.048 1.08 0 .8-.056 1.344-.168 1.632-.112.288-.344.464-.696.528l-2.16.192c-.768.256-1.344.512-1.728.768-.224.16-.384.4-.48.72-.096.32-.128.832-.096 1.536h2.784c.928 0 1.656.088 2.184.264.528.176.792.424.792.744v.72c0 .096.016.176.048.24.064.192.088.336.072.432a1.749 1.749 0 0 0-.024.288v2.952c0 .24.016.44.048.6v.96c0 .576-.064 1.056-.192 1.44-.064.544-.416.816-1.056.816h-1.872a1.262 1.262 0 0 0-.432-.024c-.16.016-.48.008-.96-.024l-.816-.096c-.096 3.264-.2 6.2-.312 8.808-.112 2.608-.232 4.672-.36 6.192-.128 1.52-.24 2.296-.336 2.328-.48.224-1.216.336-2.208.336H13.2c-.128 0-.32.032-.576.096h-3.12l-3.456.048ZM31.968 38.72c-1.6 0-2.848-.048-3.744-.144-.896-.096-1.68-.256-2.352-.48-.192 0-.32-.08-.384-.24a2.338 2.338 0 0 1-.192-.96l-.528-8.112a84.663 84.663 0 0 1-.216-5.016c-.016-.912-.024-1.992-.024-3.24v-1.392l.048-2.016.096-2.4.096-1.776v-1.032c0-.144.016-.264.048-.36 0-.096.064-.144.192-.144.288 0 .576-.064.864-.192h.192c.064 0 .16-.016.288-.048h.264c.112 0 .2.016.264.048h7.728c.16 0 .304.016.432.048l1.488.048c.384.032.664.064.84.096.176.032.312.144.408.336l.384 1.344v3.168c.768-1.28 2.16-2.624 4.176-4.032.832-.608 1.648-.976 2.448-1.104a29.07 29.07 0 0 0 2.016-.384c.384-.096.704-.04.96.168.256.208.384.52.384.936 0 4-.096 6.792-.288 8.376-.192 1.584-.544 2.36-1.056 2.328a11.669 11.669 0 0 1-1.848-.264c-.656-.144-1.416-.216-2.28-.216-1.312 0-2.408.344-3.288 1.032-.88.688-1.32 1.544-1.32 2.568v12c0 .16-.032.256-.096.288-.032.032-.048.112-.048.24-.032.128-.112.192-.24.192.032 0-.016.032-.144.096l-.24.096c-1.248 0-2.432.048-3.552.144h-1.776ZM64.32 9.488c.128 0 .272.008.432.024.16.016.352.04.576.072.064 0 .176.008.336.024.16.016.336.024.528.024.672 0 1.904.272 3.696.816h.288c.224 0 .4.048.528.144a.787.787 0 0 1 .096.12c.032.048.064.072.096.072.16 0 .256.048.288.144l.912.768c1.568 1.344 2.752 3.184 3.552 5.52a20.552 20.552 0 0 1 1.104 6.72l-.384.912-12.864.24-1.392.048.048 1.248.192 1.152.432 1.152 1.248 1.104c.352.288.856.528 1.512.72a7.225 7.225 0 0 0 2.04.288h.24c.544 0 1.216-.12 2.016-.36s1.648-.472 2.544-.696l2.688-.672.576.72.864 6.096-.528.864c-1.472.704-2.8 1.248-3.984 1.632-1.184.384-2.288.64-3.312.768-.896.096-1.672.184-2.328.264-.656.08-1.272.12-1.848.12-.96 0-1.824-.096-2.592-.288a18.748 18.748 0 0 0-2.4-.432c-1.184-.128-2.304-.528-3.36-1.2-2.24-1.728-3.88-3.64-4.92-5.736-1.04-2.096-1.592-4.6-1.656-7.512-.064-3.296.576-6.176 1.92-8.64l.24-.816c.128-.064.2-.12.216-.168.016-.048.04-.072.072-.072l.096-.192.288-.192c1.12-2.112 2.928-3.552 5.424-4.32 1.504-.32 3.664-.48 6.48-.48Zm0 5.808c-.096 0-.208.008-.336.024-.128.016-.224.104-.288.264-.064.192-.208.32-.432.384s-.384.464-.48 1.2c-.096.8-.184 1.424-.264 1.872-.08.448.04.672.36.672l3.168-.048-.144-1.44-.144-.912-.192-1.008c0-.128-.024-.224-.072-.288a.818.818 0 0 1-.12-.288l-.48-.336a1.812 1.812 0 0 0-.576-.096ZM93.504 9.488c.128 0 .272.008.432.024.16.016.352.04.576.072.064 0 .176.008.336.024.16.016.336.024.528.024.672 0 1.904.272 3.696.816h.288c.224 0 .4.048.528.144a.787.787 0 0 1 .096.12c.032.048.064.072.096.072.16 0 .256.048.288.144l.912.768c1.568 1.344 2.752 3.184 3.552 5.52a20.552 20.552 0 0 1 1.104 6.72l-.384.912-12.864.24-1.392.048.048 1.248.192 1.152.432 1.152 1.248 1.104c.352.288.856.528 1.512.72a7.225 7.225 0 0 0 2.04.288h.24c.544 0 1.216-.12 2.016-.36s1.648-.472 2.544-.696l2.688-.672.576.72.864 6.096-.528.864c-1.472.704-2.8 1.248-3.984 1.632-1.184.384-2.288.64-3.312.768-.896.096-1.672.184-2.328.264-.656.08-1.272.12-1.848.12-.96 0-1.824-.096-2.592-.288a18.748 18.748 0 0 0-2.4-.432c-1.184-.128-2.304-.528-3.36-1.2-2.24-1.728-3.88-3.64-4.92-5.736-1.04-2.096-1.592-4.6-1.656-7.512-.064-3.296.576-6.176 1.92-8.64l.24-.816c.128-.064.2-.12.216-.168.016-.048.04-.072.072-.072l.096-.192.288-.192c1.12-2.112 2.928-3.552 5.424-4.32 1.504-.32 3.664-.48 6.48-.48Zm0 5.808c-.096 0-.208.008-.336.024-.128.016-.224.104-.288.264-.064.192-.208.32-.432.384s-.384.464-.48 1.2c-.096.8-.184 1.424-.264 1.872-.08.448.04.672.36.672l3.168-.048-.144-1.44-.144-.912-.192-1.008c0-.128-.024-.224-.072-.288a.818.818 0 0 1-.12-.288l-.48-.336a1.812 1.812 0 0 0-.576-.096ZM115.872 38.72c-1.6 0-2.848-.048-3.744-.144-.896-.096-1.68-.256-2.352-.48-.192 0-.32-.08-.384-.24a2.338 2.338 0 0 1-.192-.96l-.528-8.112a84.663 84.663 0 0 1-.216-5.016c-.016-.912-.024-1.992-.024-3.24v-1.392l.048-2.016.096-2.4.096-1.776v-1.032c0-.144.016-.264.048-.36 0-.096.064-.144.192-.144.288 0 .576-.064.864-.192h.192c.064 0 .16-.016.288-.048h.264c.112 0 .2.016.264.048h7.728c.16 0 .304.016.432.048l1.488.048c.384.032.664.064.84.096.176.032.312.144.408.336l.384 1.344v3.168c.768-1.28 2.16-2.624 4.176-4.032.832-.608 1.648-.976 2.448-1.104a29.07 29.07 0 0 0 2.016-.384c.384-.096.704-.04.96.168.256.208.384.52.384.936 0 4-.096 6.792-.288 8.376-.192 1.584-.544 2.36-1.056 2.328a11.669 11.669 0 0 1-1.848-.264c-.656-.144-1.416-.216-2.28-.216-1.312 0-2.408.344-3.288 1.032-.88.688-1.32 1.544-1.32 2.568v12c0 .16-.032.256-.096.288-.032.032-.048.112-.048.24-.032.128-.112.192-.24.192.032 0-.016.032-.144.096l-.24.096c-1.248 0-2.432.048-3.552.144h-1.776ZM149.424 39.536c-1.184 0-2.4-.072-3.648-.216a40.34 40.34 0 0 1-3.504-.552c-.896-.224-1.664-.496-2.304-.816a6.039 6.039 0 0 1-1.752-1.344c-.528-.576-1.096-1.328-1.704-2.256h-.528l-.048-.768c-.032 0-.056-.008-.072-.024-.016-.016-.056-.024-.12-.024l-.384-.864c-1.376-2.624-2-5.44-1.872-8.448.16-3.104.808-5.688 1.944-7.752s2.952-3.928 5.448-5.592c.704-.416 1.376-.688 2.016-.816.64-.128 1.264-.256 1.872-.384.832 0 1.744.016 2.736.048.992.032 1.984.048 2.976.048h.192c.064 0 .096.016.096.048.16-.032.4-.048.72-.048.32 0 .64.016.96.048 2.464.192 4.56 1.04 6.288 2.544 1.12.992 2.08 2.192 2.88 3.6a18.223 18.223 0 0 1 1.824 4.608c.416 1.664.592 3.344.528 5.04a12.952 12.952 0 0 1-.552 3.504c-.336 1.088-.68 2.192-1.032 3.312a8.942 8.942 0 0 1-1.584 2.976 10.592 10.592 0 0 1-2.496 2.304l-1.056.672c-.032.032-.048.024-.048-.024s-.08.008-.24.168a.326.326 0 0 1-.24.096c-.128.096-.416.144-.864.144h-.288c-.736.224-1.488.472-2.256.744-.768.272-1.424.28-1.968.024a.759.759 0 0 0-.552-.072 1.689 1.689 0 0 1-.36.072h-1.008Zm-.096-5.712c.192 0 .392-.016.6-.048.208-.032.328-.048.36-.048l.816-1.776c.032-.096.064-.2.096-.312.032-.112.048-.232.048-.36l.336-.576v-1.056c.16-.288.272-.584.336-.888.064-.304.16-.84.288-1.608v-.816l.048-.864-.864-6.528c-.192-1.536-.64-2.368-1.344-2.496-.352-.064-.576-.128-.672-.192-.096-.064-.256-.112-.48-.144-.096-.032-.256-.08-.48-.144-.224-.064-.448 0-.672.192-.352.576-.648 1.328-.888 2.256-.24.928-.36 1.808-.36 2.64v3.12c0 .832.032 1.704.096 2.616.064.912.176 1.672.336 2.28.16.512.256.848.288 1.008.032.16.048.304.048.432 0 1.216.416 2.144 1.248 2.784 0 .352.272.528.816.528ZM196.128 11.024c.096 0 .144.08.144.24 0 3.392-.008 6.352-.024 8.88a644.24 644.24 0 0 1-.072 6.648c-.032 1.904-.08 3.632-.144 5.184-.064 1.552-.144 3.08-.24 4.584 0 .416-.096.736-.288.96-.192.224-.32.4-.384.528-.032.032-.048.056-.048.072 0 .016-.032.056-.096.12l-.144.096c-.032-.032-.152-.072-.36-.12a2.291 2.291 0 0 0-.456-.072l-.096.096c-.064.064-.128.096-.192.096-.544.128-1.184.208-1.92.24s-1.888.048-3.456.048h-2.016c-.768 0-1.44-.048-2.016-.144-.192-.16-.432-.544-.72-1.152a3.451 3.451 0 0 1-.072-.576c-.016-.256-.056-.416-.12-.48-.032-.16-.096-.24-.192-.24l-.288-.096v.24h-.048c-1.888 2.24-4.672 3.36-8.352 3.36-2.208 0-3.984-.592-5.328-1.776-1.344-1.184-2.16-2.848-2.448-4.992a54.255 54.255 0 0 1-.288-3.408 68.537 68.537 0 0 1-.096-3.696c0-1.056.024-2.136.072-3.24.048-1.104.088-2.264.12-3.48 0-.16.032-.392.096-.696.064-.304.096-.616.096-.936 0-.576.008-1.328.024-2.256.016-.928.024-1.792.024-2.592v-.672c0-.096-.016-.16-.048-.192 0-.16-.008-.32-.024-.48a4.383 4.383 0 0 1-.024-.432c0-.224.088-.376.264-.456.176-.08.52-.12 1.032-.12h2.352a116.454 116.454 0 0 1 4.752.096c2.08.064 3.376.464 3.888 1.2.096.288.144.992.144 2.112 0 1.216-.008 2.272-.024 3.168-.016.896-.024 1.744-.024 2.544v2.592c0 .416-.016.816-.048 1.2a47.986 47.986 0 0 0 .024 3.408 19.099 19.099 0 0 1-.072 2.928c-.128 1.28.088 2.192.648 2.736s1.304.56 2.232.048c.512-.288.832-.608.96-.96v-16.32c-.096-.64-.144-1.152-.144-1.536-.032-.064-.048-.288-.048-.672v-1.2c0-.576.224-.864.672-.864.192 0 .288.08.288.24v.048c.352-.128 1.008-.232 1.968-.312.96-.08 1.888-.12 2.784-.12h1.152l6 .144c.16 0 .24.048.24.144.032 0 .048.016.048.048v.24c-.032 0-.048.048-.048.144l.24-.048c.064-.064.112-.096.144-.096ZM214.08 39.008c-1.184.064-2.2.12-3.048.168-.848.048-1.648.016-2.4-.096s-1.56-.344-2.424-.696c-2.016-.864-3.48-2.048-4.392-3.552-.912-1.504-1.4-3.568-1.464-6.192h.048c.032-1.12.056-2.28.072-3.48.016-1.2.04-2.304.072-3.312.032-1.008.048-1.72.048-2.136h-1.632c-.48 0-.792-.28-.936-.84-.144-.56-.208-1.288-.192-2.184.016-.896.024-1.84.024-2.832v-.624c.064-.256.096-.464.096-.624v-1.392l.048-.384.192-.192.384.048h1.968c-.032 0-.152-.008-.36-.024a6.654 6.654 0 0 0-.456-.024h.816l.144-5.76c.064-.16.064-.352 0-.576a.708.708 0 0 1 .072-.6c.112-.176.44-.264.984-.264h5.568c.224.032.48.048.768.048h2.208c.16-.064.28-.096.36-.096h.264a4.38 4.38 0 0 1 .336-.072c.096-.016.192-.024.288-.024.96-.032 1.44.672 1.44 2.112 0 .928-.032 1.832-.096 2.712-.064.88-.128 1.688-.192 2.424h2.208c.192 0 .352.016.48.048l1.152.048.144.096c.064.032.096.08.096.144v7.824c0 .224-.136.44-.408.648a2.18 2.18 0 0 1-.984.408c-.512-.128-.816-.216-.912-.264a.865.865 0 0 0-.384-.072h-1.632V24.896c0 .736.016 1.136.048 1.2v1.344h.048c.128 1.376.424 2.232.888 2.568.464.336 1.4.392 2.808.168.448.16.672.784.672 1.872v.576c0 .224.008.624.024 1.2s.04 1.52.072 2.832c-.064.192-.08.48-.048.864l-.048.72c-.128 0-.224.032-.288.096l-.24.288c-.064.064-.112.096-.144.096-.128 0-.304.024-.528.072-.224.048-.512.104-.864.168l-.768.048ZM233.28 9.488c.128 0 .272.008.432.024.16.016.352.04.576.072.064 0 .176.008.336.024.16.016.336.024.528.024.672 0 1.904.272 3.696.816h.288c.224 0 .4.048.528.144a.787.787 0 0 1 .096.12c.032.048.064.072.096.072.16 0 .256.048.288.144l.912.768c1.568 1.344 2.752 3.184 3.552 5.52a20.552 20.552 0 0 1 1.104 6.72l-.384.912-12.864.24-1.392.048.048 1.248.192 1.152.432 1.152 1.248 1.104c.352.288.856.528 1.512.72a7.225 7.225 0 0 0 2.04.288h.24c.544 0 1.216-.12 2.016-.36s1.648-.472 2.544-.696l2.688-.672.576.72.864 6.096-.528.864c-1.472.704-2.8 1.248-3.984 1.632-1.184.384-2.288.64-3.312.768-.896.096-1.672.184-2.328.264-.656.08-1.272.12-1.848.12-.96 0-1.824-.096-2.592-.288a18.748 18.748 0 0 0-2.4-.432c-1.184-.128-2.304-.528-3.36-1.2-2.24-1.728-3.88-3.64-4.92-5.736-1.04-2.096-1.592-4.6-1.656-7.512-.064-3.296.576-6.176 1.92-8.64l.24-.816c.128-.064.2-.12.216-.168.016-.048.04-.072.072-.072l.096-.192.288-.192c1.12-2.112 2.928-3.552 5.424-4.32 1.504-.32 3.664-.48 6.48-.48Zm0 5.808c-.096 0-.208.008-.336.024-.128.016-.224.104-.288.264-.064.192-.208.32-.432.384s-.384.464-.48 1.2c-.096.8-.184 1.424-.264 1.872-.08.448.04.672.36.672l3.168-.048-.144-1.44-.144-.912-.192-1.008c0-.128-.024-.224-.072-.288a.818.818 0 0 1-.12-.288l-.48-.336a1.812 1.812 0 0 0-.576-.096ZM255.648 38.72c-1.6 0-2.848-.048-3.744-.144-.896-.096-1.68-.256-2.352-.48-.192 0-.32-.08-.384-.24a2.338 2.338 0 0 1-.192-.96l-.528-8.112a84.663 84.663 0 0 1-.216-5.016c-.016-.912-.024-1.992-.024-3.24v-1.392l.048-2.016.096-2.4.096-1.776v-1.032c0-.144.016-.264.048-.36 0-.096.064-.144.192-.144.288 0 .576-.064.864-.192h.192c.064 0 .16-.016.288-.048h.264c.112 0 .2.016.264.048h7.728c.16 0 .304.016.432.048l1.488.048c.384.032.664.064.84.096.176.032.312.144.408.336l.384 1.344v3.168c.768-1.28 2.16-2.624 4.176-4.032.832-.608 1.648-.976 2.448-1.104a29.07 29.07 0 0 0 2.016-.384c.384-.096.704-.04.96.168.256.208.384.52.384.936 0 4-.096 6.792-.288 8.376-.192 1.584-.544 2.36-1.056 2.328a11.669 11.669 0 0 1-1.848-.264c-.656-.144-1.416-.216-2.28-.216-1.312 0-2.408.344-3.288 1.032-.88.688-1.32 1.544-1.32 2.568v12c0 .16-.032.256-.096.288-.032.032-.048.112-.048.24-.032.128-.112.192-.24.192.032 0-.016.032-.144.096l-.24.096c-1.248 0-2.432.048-3.552.144h-1.776Z"/>
    </g>
</svg>
